<?xml version="1.0" encoding="UTF-8"?>
<svg id="Layer_1" data-name="Layer 1" xmlns="http://www.w3.org/2000/svg" viewBox="0 0 2269.56 424.29">
  <defs>
    <style>
      .cls-1 {
        fill: #e9355d;
      }

      .cls-1, .cls-2 {
        stroke-width: 0px;
      }

      .cls-2 {
        fill: #169397;
      }
    </style>
  </defs>
  <g>
    <path class="cls-2" d="M230.97,9.18C235.1,2.54,243.33-.09,250.8,0c7.69.11,16.11,1.59,21.78,7.23,4.28,4.04,8,8.63,12.08,12.86,1.33-2.29,1.87-5.69,4.72-6.6,5.54-1.69,11.52-.23,16.61,2.2,4.93,2.48,9.64,6.02,12.16,11.06,1.59,3.17,1.73,7.24-.39,10.21-2.42,3.46-6.39,5.26-10.22,6.69.86-4.03,2.26-7.96,2.73-12.07.22-1.6-1.03-2.81-1.77-4.08-.36,4.33-.45,8.81-2.22,12.86-2.57,6.14-6.31,11.71-9.2,17.7-.89-9.72-.79-19.59,1.29-29.16.95-4.48,2.54-8.79,3.4-13.29-8.77,6.39-11.03,18.2-11.4,28.42-.73,12.15,2.4,23.97,4.35,35.84-6.92-6.27-13.19-13.72-15.72-22.9.12,4.16.24,8.31.28,12.47-6.09-2.61-13.22-5.42-16.13-11.87-2.26-6.32,3.1-11.47,5.74-16.65-2.26,1.29-4.81,2.61-5.78,5.2-2.03,4.73-2.5,10.11-5.73,14.31,8.72,5.38,17.74,10.26,26.32,15.88-6,.07-12.19,1.67-16.52,6.03-4.4,3.94-6.34,9.64-8.78,14.83-6.62-10.79-11.74-23.5-9.9-36.38.8-6.2,4.56-11.33,8.27-16.12-6.31,2.76-10.5,8.78-12.28,15.29-1.62,5.24-2.12,10.73-2.49,16.18-4.65-2.48-9.3-4.95-13.84-7.63-.08-9.2.1-18.42.91-27.59-.1-2.93,2.73-4.45,4.83-5.86,8.24-4.94,17.41-8.41,26.87-10.06,5.15-.66,11.25-1.21,15.46,2.45,3.04,2.65,2.7,7.02,3.44,10.64,1.03-4.11.86-8.76-1.93-12.17-4.01-4.99-11.03-5.74-17-5.45-6.77.21-13.06,2.9-19.13,5.63.54-5.99,4.09-10.97,6.27-16.41-9.37,4.34-7.95,18.3-18.13,21.76-1.91-7.25-2.89-15.57,1.22-22.27Z"/>
    <path class="cls-2" d="M319.7,41.83c6.72-2.83,13.98.11,20.07,3.13,3.39,1.87,7.44,4.39,7.76,8.66-7.07,6.72-17.35,9.63-23.15,17.86-2.49,2.91-2.2,6.89-2.08,10.45-2.23-3.11-4.8-6.17-5.66-9.99-.88-3.08.27-6.19.84-9.21-1.41,2.19-3.44,4.36-3.27,7.15.26,4.76,3.37,8.68,6.27,12.23,5.21,6.39,11.83,12.39,13.44,20.85,2.71,10.51-.36,21.86-6.83,30.38-7.28,9.57-17.96,16.08-29.26,19.85-1.6.5-3.24.91-4.9.99,1.79-3.59,3.88-7.03,5.36-10.77,1.58-3.57,2.81-7.57,5.9-10.16,5.28-4.23,12.65-5.39,17.12-10.7,3.78-4.63,2.11-11.17-.34-16.02-.57,5.5-.84,11.58-4.77,15.9-2.43,3.17-6.41,4.32-10.19,4.86.46-11.31,2.71-22.92-.62-34.01-2.87-10.85-8.85-21.92-5.45-33.39,2.38-9.36,11.37-14.75,19.76-18.06Z"/>
    <path class="cls-2" d="M331.84,68.07c4.63-4.21,10.44-6.82,16.31-8.8.83,8.55.36,17.15.2,25.72-.17,5.09-.22,10.71-3.77,14.77-1.4,1.42-3.09,4.32-5.38,3.05.43-5.74,2.21-11.29,2.53-17.05-2.14,2.47-4.15,5.04-6.13,7.63-4.04-3.47-7.74-7.89-8.62-13.3-.76-4.56,1.57-9.01,4.86-12.02Z"/>
    <path class="cls-2" d="M353.79,90.8c.57-9.21,1.48-18.41,2.58-27.58,7.04.93,13.85,4.26,17.98,10.19,7.5,10.56,8.77,24.19,7.89,36.77-6.58-4.15-5.56-12.79-8.71-18.99-.75-1.74-2.8-1.79-4.37-2.18-5.11-2.77-10.54-.29-15.37,1.79Z"/>
    <path class="cls-2" d="M229.97,74.76c12.51,4.24,20.45,15.66,26.87,26.54-5.14,1.19-10.19,3.1-14.38,6.39-5.35,3.77-8.8,9.45-12.47,14.73-.29-15.89-.14-31.78-.02-47.66Z"/>
    <path class="cls-2" d="M272.48,83.72c6.93-2.92,16.06-2.76,21.46,3.08,6.48,6.93,7.46,17.06,7.26,26.12-.49,11.73-3.12,23.98-10.35,33.49-.83-4.35-1.36-8.98.18-13.24,1.52-4.26,3.98-8.08,5.82-12.19-3.16,2.86-6.16,5.89-9.22,8.84-4.92-11.66-6.64-24.39-11.55-36.05.45,6.5,1.65,12.93,2.44,19.4-6.83-2.59-12.68-8.65-13.47-16.11-.87-5.49,2.31-11.2,7.43-13.34Z"/>
    <path class="cls-2" d="M358.41,92.61c2.18-1.87,5.34-1.64,7.98-1.12,2.92,2.86,4.56,6.71,6.64,10.18,4.16,7.76,9.36,15.28,10.68,24.19,4.26,23.41-4.16,47.38-17.02,66.76-1.85-5.56-3.52-11.17-5-16.83,3.73-.86,7.94-1.28,10.69-4.27,5.17-4.62,6.96-13.41,2.12-18.88.52,3.62,1.7,7.55-.1,11.02-3.19,6.1-11.44,9.42-17.82,6.54-3.12-1.34-4.21-5.75-1.97-8.33,5.15-6.88,11.75-12.8,15.47-20.66,1.36-2.65,1.41-5.66,1.46-8.56-4.88,9.06-10.5,17.89-18.07,24.96-1.58,1.54-3.79,2.8-5.98,1.71-9.32-3.47-17.75-9.39-27.76-10.93,6.89-5.21,15.78-5.07,23.94-6.22,4.57-.6,9.61-1.92,12.43-5.88,2.64-3.58,2.37-8.24,2.44-12.45-1.71,4.76-3.1,10.32-7.74,13.13-5.81,3.59-12.99,2.41-19.42,1.79,2.01-2.47,4.16-4.89,5.49-7.82,2.84-6.23,2.68-13.38,5.53-19.59,2.04-3.73,5.05-6.79,7.7-10.06,2.62-3.03,5.16-6.18,8.31-8.68Z"/>
    <path class="cls-2" d="M389.82,101.52c11.37,4.96,18.95,16.47,20.98,28.47.72,5.31.93,11.65-3.22,15.7-5.75,5.87-12.75,10.32-18.93,15.71,2.25-8.63,1.34-17.54,1.72-26.32,1.32-6.94,7.87-11.49,9.28-18.5-4.19,2.79-5.48,8.02-8.95,11.45-1.87.21-2.05-2.09-2.51-3.35-1.45-7.66-1.29-15.84,1.63-23.16Z"/>
    <path class="cls-2" d="M250.42,109.67c5.72-3.42,12.96-1.9,18.51,1.11,11.12,6.75,16.55,20.67,15.51,33.32-.61,6.46-4.85,11.77-8.94,16.5-5.79,6.31-12.08,12.14-18.61,17.68,1.47-6.72-.04-13.54.31-20.31,1.69-6.09,7.8-9.87,9.52-15.99.75-3.61.03-7.29-.2-10.91.86-.16,2.58-.48,3.44-.65-6.06-4.29-13.02-8.83-20.72-8.51,5.52,2.83,12.85,4.87,14.98,11.44,1.5,7.42-4.42,13.51-9.48,18.05-2.48-6.17-4.05-12.66-6.6-18.79-1.82,11.52,5.11,22.01,5.36,33.39.3,8.88-3.48,17.7-9.86,23.85-4.02,4.02-8.4,7.65-12.76,11.29-.55-14.59-1.19-29.18-1.49-43.78,5.91.56,11.79,1.59,17.74,1.49-4.86-4.64-11.84-4.76-18.08-5.8-.01-6.37-.24-12.75.02-19.12-.07-4.65,3.32-8.22,6.15-11.51,4.53-4.82,9.46-9.4,15.2-12.75Z"/>
    <path class="cls-2" d="M401.37,158.61c3.07-3.11,6.1-6.79,10.42-8.09,5.29,1.06,7.61,6.91,9.29,11.45,1.74,4.54.55,9.5-1.64,13.66-4.02,7.9-9.28,15.16-15.39,21.57-4.15,4.21-9.02,8.37-15.13,9.07-7.96.93-15.99-.07-23.98.27,3.07-3.83,5.84-7.88,8.48-12.01,2.07-3.17,4.46-6.56,8.29-7.67,6.68-2.22,14.04-2.06,20.38-5.44-7.15-.56-14.33-.1-21.48-.39,4.63-7,10.19-13.99,18.18-17.25,5.5-2.58,11.7-2.07,17.6-2.38-4.27-3.36-9.99-2.25-15.02-2.79Z"/>
    <path class="cls-2" d="M289.06,163.24c9-5.17,19.27-8.8,29.78-7.99,11.98.77,22.64,7.49,31.26,15.44,5.61,5.24,10.99,12.16,10.52,20.27-.45,8.13-6.59,14.39-12.47,19.35-8.99,7.03-18.98,12.67-29.17,17.77,1.09-5.21,1.04-10.78,3.19-15.68,4.99-6.6,13.84-7.79,21.49-8.72-1.51-.91-3.58-1.31-4.51-2.9.26-2.06.99-4,1.6-5.97-2.01,2.35-3.88,4.91-6.49,6.63-3.54,2.11-7.85,1.55-11.78,1.57,3.63-11.23,12.08-20.9,23.35-24.85-3.61-.08-7.22-.17-10.82-.28,1.29-3.21,2.45-6.48,3.19-9.87-4.82,3.43-6.36,9.35-9.15,14.25-1.46,2.75-3.82,4.83-6.12,6.85-2.83-7.48-3.57-15.47-4.6-23.34-4.41,10.81,1.01,22.19.01,33.31-1.12,14.2-5.58,29.11-16.42,38.96-3.11,2.91-6.84,5.05-10.79,6.59,1.9-4.95,5.64-8.85,7.85-13.63,2.19-5.02.42-10.56,1-15.8,4.02-4.27,9.88-7.31,11.68-13.29,1.2-3.11-.77-6.02-2.46-8.46-.32,3.96.37,8.46-2.17,11.84-2.05,2.76-5.51,3.75-8.54,4.99-.04-3.99.12-8.09,1.75-11.79,1.69-4.68,5.78-9.28,3.42-14.49-1.26,7.02-5.47,12.9-8.45,19.23-7.16-6.31-13.54-13.42-20.37-20.06,1.74,3.03,3.72,5.91,5.85,8.7-1.68-.29-3.35-.57-5.01-.84,7.97,5.85,16.55,12.77,18.8,22.93,1.89,7.9-1.65,15.94-6.84,21.78-7.05,7.94-16.39,13.57-26.18,17.51.11-4.35,1.79-8.34,3.42-12.3,1.61-3.83-.42-7.96.2-11.86,4.32-5.17,11.37-8.3,13.46-15.17,1.39-3.68-.17-7.48-2.35-10.47-.31,3.37.15,6.9-.9,10.15-2.71,3.69-6.36,6.56-9.59,9.77-4-5.77-1.01-12.6-.84-18.92-4.08,5.41-6.81,12.22-12.88,15.83-4.95,3.03-11.92,1.28-15.15-3.45-1.43-2.07-3.61-4.95-1.3-7.21,5.47-6.76,12.05-12.55,18.2-18.68,10.67-10.54,22.33-20.17,35.33-27.7Z"/>
    <path class="cls-2" d="M425.35,178.45c1.07-1.73,3.31.74,4.26,1.72,5.31,7.37,5.28,17.31,3.5,25.86-.95,3.5-2.82,8.56-7.09,8.62-5.25-3.16-9.13-8.19-12.98-12.86-2.42-2.26.02-5.14,1.35-7.24,3.78-5.28,7.35-10.7,10.96-16.1Z"/>
    <path class="cls-2" d="M399.4,209.43c3.23-1.39,5.95-3.65,8.66-5.84,7.79,6.49,12.06,16.41,13.16,26.34,1.01,9.43-.62,19.44-6.04,27.37-3.4,5.02-9.18,8.63-15.35,8.45-5.64.2-10.86-2.39-15.53-5.28-1.6-1.06-3.39-2.06-4.3-3.82,8.37-4.83,17.36-9.18,23.82-16.6,3.01-3.48,5.03-8.34,3.61-12.94-1.61-5.05-5.59-8.97-10.05-11.65,2.18,5.21,8.53,9.01,7.09,15.3-1.18,6.68-6.6,13.13-13.66,13.67,2.07-7.22,3.67-15.11.95-22.38-1.07-3.27-3.49-5.79-5.89-8.12,2.73,6.92,5.4,14.55,3.04,21.98-2.13,6.59-6.51,13.47-13.48,15.57-7.57,1.29-14.56-2.89-21.86-4.15,1.66-2.18,3.36-4.5,5.93-5.68,5.5-2.92,11.9-2.24,17.89-2.96-5.37-3.35-11.9-.93-17.79-1.82,2.65-5.4,6.47-10.14,8.79-15.71-5.91,3.4-8.47,10.01-11.81,15.58-2.22,4.15-5.24,7.81-8.82,10.85-7.16-.4-13.71,2.64-20.3,4.9-3.53,1.61-6.74-1.08-9.71-2.64-3.84-2.31-8.09-3.78-12.33-5.15,2.28-2.13,4.66-4.26,7.59-5.47,9.89-4.35,21.22-2.8,31.21-6.84,2.53-.98,4.52-2.85,6.47-4.67-5.21,1-10.66,2.91-15.89.9.64-1.63,2.59-2.03,3.93-2.91,7.16-3.48,12.67-9.9,20.43-12.18,13.22-3.12,27.43,1.27,40.24-4.1Z"/>
    <path class="cls-2" d="M230.92,216.98c3.91,3.19,7.77,6.44,11.72,9.58-3.65,4.46-7.58,8.69-11.66,12.77-.18-7.45-.14-14.91-.06-22.35Z"/>
    <path class="cls-2" d="M233.62,245.98c5.65-11.29,16.24-18.87,26.27-26.01,3.21,8,2.78,17.19-.93,24.94-5.72,12.25-16.35,21.27-27.08,29.06-2.73-9.13-2.72-19.4,1.74-27.99Z"/>
    <path class="cls-2" d="M330.41,257.03c8.77-1.67,16.91-7.43,26.15-5.67,7.62,1.31,15.57,3.95,20.93,9.8,2.89,2.93,3.17,7.84.54,11.03-3.62,4.51-8.88,7.53-14.24,9.49-5.75,2.13-12.35.32-16.51-4.08-6.22-6.35-10.83-14.06-16.87-20.57Z"/>
    <path class="cls-2" d="M280.8,254.23c14.08-4.36,29.56-1.6,42.33,5.35,6.85,3.84,12.89,9.55,16.2,16.75,2.43,5.3,2.11,11.92-1.48,16.63-4.82,6.28-13.56,9.4-21.24,7.33-4.99-1.42-8.4-6.27-8.82-11.34-1.01-7.82,2.11-15.26,4.7-22.46-1.32,1.02-2.91,1.93-3.51,3.58-3.16,7.5-3.93,15.7-5.77,23.56-1.38,5.55-7.08,8.6-12.3,9.63-7.93,1.36-16.33-.35-23.2-4.51-3.3-2.08-6.6-5.58-5.69-9.82.22-1.86,2.53-2.16,3.99-2.64,11.88-2.42,24.86-2,35.48-8.63,3.42-1.89,5.16-5.51,6.24-9.1-4.37,3.08-8.16,7.08-13.2,9.1-4.65,2.21-9.85,2.81-14.94,2.42,3.76-4.2,9.45-7.77,9.35-14.1-3.51,2.89-6.92,5.96-10.9,8.22-8.19,4.85-17.7,7.58-24.86,14.08-5.9,5.27-9.22,12.77-10.94,20.37-5.65,23.08-2.94,48.73,9.7,69.11,9.5,15.72,26.05,26.77,44.15,29.77,11.74,2.08,24-.82,35.53,2.76,6.41,1.98,12.49,7.01,13.39,14-4.97-1.57-9.74-3.77-14.86-4.78-12.98-2.66-26.46-1.95-39.31-5.33-15.03-3.88-28.22-13.48-37.34-25.94-10.82-14.91-16.62-33.07-17.97-51.35-1.42-19.84,2.12-40.51,12.72-57.57,7.35-11.91,18.9-21.47,32.55-25.09Z"/>
    <path class="cls-1" d="M155.05,12.27c8.83-9.09,22.26-13.6,34.78-11.54,6.93,1.19,13.46,6.17,15.07,13.23,1.11,5.7,1,11.98-1.85,17.2-6.88-5.42-8.4-14.86-14.66-20.81-1.3-1.23-3.05-1.76-4.67-2.42,3.71,5.6,9.21,10.9,8.97,18.13-7.72-2.59-15.57-5.73-23.88-5.17-3.88.4-7.99,1.31-10.91,4.07-1.71,1.58-2.3,3.9-3.18,5.96,1.76-1.96,3.44-4.22,6-5.17,3.77-1.64,8-1.44,12.01-1.12,8.25,1.04,16.15,4.01,23.5,7.83,3.27,1.84,6.76,3.78,8.91,6.96,1.22,9.92,1.19,20.02.21,29.97-4.51,2.41-9.13,4.62-13.91,6.44-.27-6.93.12-14.17-2.76-20.66-1.62-3.7-4.67-6.43-7.58-9.12,4.26,8.95,6.7,19.07,4.62,28.95-1.52,7.7-4.85,15.04-9.68,21.23-2.24-6.53-5.9-12.91-12.01-16.5-4.03-2.6-8.79-3.56-13.39-4.58,6.95-4.82,14.85-7.98,22.13-12.22,2.72-1.2,1.64-4.63,1.72-6.96-.79-5.27-1.85-11.59-6.8-14.6.56,5.59,5.21,10.3,3.53,16.18-1.86,7.91-11.32,8.67-17.31,12.16.69-7.05,4.31-14.08,1.75-21.17-.92,5.07.17,10.79-3.01,15.22-4.24,6.34-8.76,12.69-14.75,17.5,2.85-10.61,6.33-21.22,6.47-32.33.43-10.46-1.95-21.86-9.98-29.2,4.39,12.19,4.79,25.52,2.93,38.24-3.67-6.63-7.49-13.17-10.92-19.92-.15,2.25-.22,4.51-.3,6.77-4.11-2.47-8.36-5.46-10.06-10.16-1.52-4.02.03-8.45,2.45-11.76,5.44-7.36,15.28-11.39,24.3-9.26,2.63.81,4.64,2.78,7.01,4.09,2.22-1.15,3.4-3.77,5.25-5.46Z"/>
    <path class="cls-1" d="M89.77,48.99c4.52-5.11,11.02-9.33,18.13-8.39,8.3,1.08,16.52,4.78,22.23,10.99,3.62,4.23,5.35,9.86,5.26,15.39.11,17.4-8.97,33.49-8.34,50.95-.03,3.45.7,6.83,1.45,10.18-5.29-2.12-10.7-5.08-13.53-10.26-2.29-3.91-1.87-8.59-1.8-12.93-1.85,4.97-3.83,10.7-1.07,15.75,4.15,7.74,13.27,10.12,19.77,15.21,3.36,6.03,5.95,12.51,8.78,18.82-14.77-3.81-29.16-12.49-36.49-26.27-6.9-12.45-4.94-28.55,3.19-39.94,2.89-3.7,7.19-6.08,9.86-9.98,2.13-4.13,2.61-9.12,1.63-13.63-.48-2.39-2.75-3.47-4.81-4.22,1.63,2.23,3.61,4.43,3.96,7.29-.09,5.44-3.07,10.24-6.73,14.06-.61-4.42-.7-9.29-3.63-12.94-5.36-6.7-14.53-8.55-20.37-14.68-1.03-2.05,1.4-3.88,2.51-5.4Z"/>
    <path class="cls-1" d="M86.35,59.1c7.57,3.48,16.28,7.09,20.26,14.92,2.96,7.87-2.61,15.67-8,20.95-3.13-4.45-4.35-10.72-9.8-13.06,1.92,4.06,4.98,7.59,6.04,12.04,1.07,3.71.45,7.64-.67,11.26-2.07-1.48-4.12-3.17-5.01-5.64-2.8-6.8-3.7-14.24-4.04-21.54-.09-6.31-.57-12.78,1.22-18.93Z"/>
    <path class="cls-1" d="M59.51,73.89c4.11-6.14,10.87-9.84,17.87-11.7,1.32,9.45,1.58,19.01,2.88,28.47-5.04-1.34-10.48-2.23-15.38.13.62-1.31,1.24-2.61,1.85-3.92-1.48.36-3.02.87-3.62,2.42-3.58,6.45-6.17,13.39-9.3,20.07-.35.03-1.07.09-1.42.12-1.04-12.17-.22-25.34,7.12-35.59Z"/>
    <path class="cls-1" d="M177.68,101.25c5.18-11.59,14.72-21.13,26.27-26.38.17,15.79.29,31.61-.07,47.4-3.26-6.48-7.58-12.74-14.11-16.28-3.76-2.21-7.94-3.5-12.09-4.74Z"/>
    <path class="cls-1" d="M142.42,84.69c4.23-3.2,9.94-2.99,14.88-1.91,5.59,1.63,11.61,5.08,13.18,11.11,1.5,3.75-.39,7.9-3.19,10.48-3.33,3.01-7.24,5.26-11.03,7.62.08-3.99.27-7.99-.05-11.98-2.26,2.88-3,6.51-4.08,9.92-2.07,6.54-3.95,13.13-6.27,19.59-3.18-3.09-6.09-6.44-9.18-9.62,1.76,3.94,4.03,7.64,5.64,11.65,1.77,4.34,1.3,9.15.75,13.68-3.69-3.67-5.48-8.67-7.01-13.52-2.92-9.58-3.68-19.76-2.53-29.69,1.09-6.43,3.32-13.41,8.89-17.33Z"/>
    <path class="cls-1" d="M66.13,95.28c1.38-1.94,2.8-4.84,5.71-4.04,5.71,1.11,10.04,5.74,13.66,10.01,1.48,1.19.04,2.9-.19,4.29,2.59,2.69,5.93,4.59,8.35,7.45,2.16,5.03,2.22,10.67,3.95,15.85.91,3.53,3.37,6.34,4.96,9.55-7.56,2.48-17,1.35-22.87-4.35-3.68-3.39-3.13-8.74-3.53-13.26-2.56,7.36.67,16.31,7.68,19.91,6.48,3.25,13.96,2.18,20.94,2.82,4.03.37,7.8,2.35,10.3,5.55-10.04,3.79-20.3,6.97-30.26,10.99-7.61-8.73-14.51-18.15-22.71-26.34.55,6.64,5.09,11.88,9.22,16.73,3.43,4.03,7.49,7.51,10.7,11.72-1.87,4.14-5.63,7.42-9.13,10.28-5.3.82-9.89-3.2-12.38-7.49-2.01-3.21-2.04-7.1-2.31-10.74-1.58,3.16-3.99,6.85-2.08,10.42,3.32,6.21,10.57,8.35,16.61,10.98-1.07,6.05-3.25,11.88-3.62,18.05-5.19-4.8-8.63-11.11-11.56-17.46-6.47-14.78-9.66-31.15-8.14-47.28.42-4.09,1.42-8.17,3.49-11.76,4.15-7.44,8.57-14.74,13.21-21.88Z"/>
    <path class="cls-1" d="M37.54,104.71c1.81-1.87,4.29-2.79,6.75-3.45,1.11,2.11,2.26,4.31,2.27,6.77.32,6.71.03,13.49-1.48,20.06-3.42-2.99-6.58-6.25-9.94-9.3,2.74,4.89,6.3,9.31,8.69,14.39.42,6.54-2.16,13.28-.08,19.78,1.26,3.89,2.03,7.92,1.84,12.03-3.04-4.45-6.64-8.49-10.86-11.84-4.76-3.77-9.82-8.05-11.23-14.24-.82-5.21-.96-10.88,1.52-15.69,3.18-6.74,7.1-13.3,12.52-18.51Z"/>
    <path class="cls-1" d="M164.37,110.53c7.88-5.14,18.45-3.08,25.74,2.14,12.25,9.04,19.04,25.61,15.31,40.57-4.15.96-8.32,1.92-12.36,3.29,4.12.1,8.29-.18,12.34.81-.06,14.6-1.24,29.15-1.36,43.75-7.25-5.51-14.66-11.32-19.57-19.13-2.69-4.46-4.31-9.74-3.92-14.98.42-3.63,3.33-6.11,5.69-8.58-.85.05-2.55.14-3.4.19.94-8.62,4.52-16.95,3.85-25.71-.02-2.53-1.85-4.35-3.39-6.13.74,3.35,1.54,6.74,1.32,10.2-.18,5.57-2.97,10.55-5.36,15.44-4.37-3.85-8.02-8.74-9.65-14.38-1.01-3.59.49-7.46,3.24-9.85,3.99-3.51,9.15-5.15,14.07-6.9-5.99.44-12.59,1.31-17.12,5.65-4.13,4.3-3.69,10.87-1.82,16.1,1.72,5.49,6.96,8.83,9.33,13.93.8,7-.77,14.05.13,21.07-9.01-8.2-18.88-15.84-25.52-26.21-3.87-5.85-3.12-13.35-1.45-19.81,2.29-8.29,6.59-16.56,13.9-21.46Z"/>
    <path class="cls-1" d="M20.32,151.52c.98-1.18,2.14-1.37,3.5-.57,3.7,1.67,6.69,4.69,8.53,8.3-3.84.74-7.7,1.36-11.56,1.99,8.53.52,17.5,2.87,23.69,9.11,3.48,3.59,7.01,7.86,7.26,13.1-5.56-.22-10.86-2-16.08-3.74-.33,5.33,5.71,4.81,9.17,6.37,10.22,2.94,19.57,10.02,23.16,20.31-7.04-.18-14.08.6-21.11.26-4.57-.2-8.57-2.76-12.12-5.4-7.04-5.41-12.55-12.6-16.96-20.24-3.21-6.11-6.28-12.94-5.25-20.01,1.75-3.72,4.86-6.64,7.77-9.48Z"/>
    <path class="cls-1" d="M103.87,156.64c12.48-4.63,26.35-1.35,37.88,4.4,15.68,8.14,29.25,19.77,41.55,32.34,5.67,5.82,11.94,11.15,16.88,17.62-.22,7.96-10.69,13.83-17.5,9.09-6.16-3.67-7.85-11.18-12.62-16.1-.07,6.04,3.08,13.11-1.17,18.42-3.11.56-5.52-1.97-7.55-3.94-3.6-3.39-3.4-8.67-4.7-13.1-1.26,2.32-2.84,4.95-1.69,7.67,2.25,7.65,9.64,11.79,15.38,16.61.12,7.45-.54,14.99,1.11,22.33-13.25-4.85-26.03-13.65-31.63-27.07-1.43-7.35.26-15.08,4.79-21.05,4.06-6.16,13.21-7.41,15.51-14.93-2.62,1.91-5.24,4.29-8.76,3.92,2.13-3.43,4.57-6.64,6.95-9.9-4.32,4.87-8.81,9.58-13.05,14.51-1.47,1.58-2.84,3.34-4.77,4.36-3.83-5.53-6.75-11.64-10.64-17.12.58,8.81,7.82,16,6.65,25.08-4.29.08-9.17-1.56-10.95-5.81-1.3-4.71-.13-9.61.67-14.3-3.41,4.42-3.78,10.3-2.78,15.61,1.43,5.02,6.75,7.08,11.2,8.65.13,5.32-1.32,10.72-.06,15.97,2.17,5.32,6.51,9.49,8.26,15.04-9.63-3.67-16.43-12.13-20.85-21.14-4.4-9.01-6.99-18.9-7.68-28.9-.56-7.46,2.23-14.58,2.76-21.95.27-3.77-.85-7.56-3.16-10.55.13,4.18,2.41,8.37.93,12.52-1.69,4.88-3.84,9.58-5.64,14.42-6.73-6.67-7.68-17.08-14.37-23.83,1.03,4.62,3.14,8.87,4.87,13.25-2.94-.09-5.87-.21-8.81-.37,7.59,4.65,14.09,11.08,18.83,18.61,1.36,2.03,1.73,4.47,2.09,6.84-4.3-1.28-8.77-1.67-13.24-1.51-1.78-2.94-3.47-5.93-5.38-8.79-.52-.04-1.57-.11-2.1-.15,1.64,2.26,3,4.7,3.97,7.32-.47,1.11-2.8,2.04-1.7,3.46,6.44,1.3,14.63,1.42,18.28,7.91,2.23,5.05,1.91,10.81,3.86,15.99-9.29-5.14-18.5-10.46-27.32-16.39-4.21-3.01-8.69-6.05-11.54-10.48-3.62-7.25-2.21-15.98,1.56-22.87,5.55-10.03,15.01-17.68,25.68-21.69Z"/>
    <path class="cls-1" d="M.23,190.86c.41-5.4,2.99-10.58,7.51-13.68,5.9,7.3,11.71,14.74,16.68,22.72-4.05,4.52-7.99,9.15-12.34,13.38-2.03,2.5-6.11,1.73-7.73-.83C-.26,206.31-.31,198.18.23,190.86Z"/>
    <path class="cls-1" d="M16.74,215.88c2.43-4.5,5.2-9.64,10.01-11.85,3.7,2.31,7.05,5.4,11.44,6.37,11.68,3.02,23.84-.62,35.63,1.36,4.43,1.4,8.16,4.31,11.96,6.89,4.38,3.26,9.06,6.08,13.36,9.44-6.74,1.31-13.66-.08-19.51-3.58,4.72,4.94,10.92,8.14,17.66,9.25,10.88,2.06,23.33,2.53,31.37,11.26-5.38,1.26-10.14,4.09-14.94,6.72-3.66,2.23-7.96.4-11.79-.31-5.71-1.54-11.79-2.09-17.05-4.96-.59.58-1.17,1.17-1.74,1.77-6.68-.44-12.98,1.94-19.44,3.16-4.99.98-9.95-1.47-12.99-5.36-4.02-4.77-7.01-10.74-7.02-17.09.17-5.07,2.39-9.69,3.95-14.42-5.12,4.22-7.07,11.04-7.11,17.46.08,4.4,2.13,8.39,3.01,12.63-8.92-.75-15.82-11.03-12.68-19.53,2-3.48,5.58-5.8,7.24-9.53-5.64,3.25-10.6,8.75-11.45,15.4-.12,4.73,2.77,8.94,6.14,12.01,6.28,5.7,13.93,9.53,21.24,13.71-6.05,5.85-14.55,10.28-23.17,8.65-6.21-1.3-11.03-6.19-13.9-11.64-6-11.65-5.89-26.05-.22-37.81ZM64.73,220.09c3.3,5.54,7.51,10.71,9,17.14-4.66.19-9.32.42-13.97.68,7.96.5,15.75,3.42,21.89,8.55l1.56-1.47c-5.28-4.84-6.94-12.11-10.82-17.91-1.83-3.03-4.7-5.18-7.66-6.99Z"/>
    <path class="cls-1" d="M191.94,226.82c3.93-3.05,7.91-6.07,12.07-8.81.02,7.01.3,14.05-.13,21.06-4.48-3.56-7.9-8.23-11.94-12.25Z"/>
    <path class="cls-1" d="M174.46,220.68c4.81,1.52,8.49,5.12,12.33,8.21,7.44,6.37,14.37,14.31,16.41,24.17.74,4.9.65,9.93.01,14.84-.42,1.54-.34,3.76-2.17,4.37-10.73-6.87-20.45-16.28-25.4-28.21-3.13-7.38-3.08-15.7-1.18-23.38Z"/>
    <path class="cls-1" d="M67.6,253.79c5.74-2.51,12.14-4.53,18.45-3.14,6.4,1.54,12.75,3.41,18.89,5.83-4.03,4.28-7.8,8.78-11.1,13.64-3.59,4.88-7.44,10.37-13.54,12.18-7.22,1.66-14.24-1.93-19.96-5.98-3.23-2.47-6.7-6.3-5.57-10.69,1.85-5.87,7.57-9.34,12.83-11.84Z"/>
    <path class="cls-1" d="M103.81,264.92c8.82-8.82,21.52-13.48,33.97-12.43,17.37,1.37,33.45,10.63,45.12,23.31,12.65,13.27,16.84,32.4,16.69,50.23.38,17.69-3.45,35.54-11.48,51.34-7.55,14.24-19.91,26.15-34.93,32.24-12.52,5.19-26.11,6.73-39.39,8.86-8.64,1.22-17.16,3.16-25.62,5.27,2.79-5.29,6.31-10.73,12.13-13,7.86-2.91,16.37-.83,24.51-1.69,18.87-1.9,38.01-8.84,51.43-22.66,12.05-12.59,15.51-30.58,17.01-47.33.73-16.31-.01-34.05-9.51-47.99-5.98-8.82-16.79-11.42-26.16-14.95-5.89-2.07-10.51-6.39-14.32-11.2.46,1.91.69,3.97,1.81,5.65,2.7,4.19,7.79,6.26,9.98,10.86-4.87-.41-9.76-1.38-14.18-3.53-5.13-2.35-9.4-6.1-14.09-9.16,2.41,4.79,6.05,9.09,11.04,11.3,10.61,5.03,22.84,4.33,33.67,8.78-1,7.59-7.42,13.47-14.84,14.63-7.75,1.04-17.06.71-22.47-5.79-7.37-9.3-4.34-23.37-13.22-31.88,1.25,7.9,6.8,14.94,5.54,23.2-.4,3.92-2.56,7.73-5.96,9.8-10.08,6.11-25.76-.67-27.04-12.74-.55-8.27,4.76-15.53,10.31-21.12Z"/>
  </g>
  <g>
    <path class="cls-2" d="M1012.59,244.29c24.33-3.74,50.5,8.64,62.32,30.38,14.34,24.92,7.77,59.7-14.98,77.4-18.66,15.59-46.73,17.57-67.94,6.12-23.8-12.33-36.47-41.8-30.19-67.67,5.09-24.12,26.51-43.05,50.79-46.23ZM1012.4,278.59c-19.7,7.16-23.09,36.71-5.96,48.56,14.79,12.94,39.26.42,40.61-18.26,3.92-18.77-16.2-38.25-34.65-30.3Z"/>
    <path class="cls-2" d="M642.25,247.52c9.01-1.59,18.21-.9,27.3-.9,19.32.45,38.68-.74,57.95.77-.03,9.94-.08,19.91-.16,29.87-17.2.85-34.41.45-51.61.56v12.35c13.23.72,26.48.8,39.71.66.24,9.46.19,18.95-.21,28.47-13.2-.19-26.4.05-39.58.95.03,3.98.11,7.98.16,12.01,17.47,1.51,34.99.77,52.51.98.32,9.65,1.4,19.4-.24,29-3.5,3.02-9.28,1.17-13.63,1.86-23.59-.85-47.26.85-70.8-.69-3.82-3.66-1.8-9.86-2.47-14.53,1.17-33.77-1.27-67.73,1.06-101.37Z"/>
    <path class="cls-2" d="M807.34,246.65c10.74.16,21.6-1.01,32.26.85,3.63,13.86.53,28.84,1.38,43.15-.82,18.4,3.82,38.97-7.42,55.16-17.23,25-56.94,27.46-79.6,8.69-9.94-8.59-15.11-21.79-14.9-34.8-.32-24.07.19-48.16-.16-72.23,11.42-.69,22.88-.77,34.33-.32.69,23.35-.4,46.73.5,70.09.05,8.32,6.41,16.67,15.11,17.1,8.54.93,16.3-6.2,17.02-14.58,2.04-24.31-.82-48.8,1.48-73.11Z"/>
    <path class="cls-2" d="M856.22,250.89c-.53-3.79,4.21-4.21,6.81-4.19,14.13-.4,28.23,0,42.36-.08,11.21-.24,22.82,2.65,31.39,10.21,11.56,9.65,14.92,26.19,12.09,40.48-1.88,9.15-8.91,15.75-14.87,22.45,7.08,14.45,14.58,28.68,21.79,43.08-12.46,1.11-25.21,2.49-37.61.21-7.66-10.82-11.66-23.7-17.92-35.34-3.31.16-6.6.34-9.89.53.27,11.9.13,23.86-.64,35.76-10.97-.11-22.05.77-32.92-1.01-1.25-7.34-.9-14.82-.9-22.19.45-29.98-.37-59.99.32-89.91ZM890.41,277.37c0,7-.03,14.02-.03,21.05,5.88-.03,11.85.37,17.68-.66,8.06-2.52,9.44-15.45,1.8-19.35-6.28-1.99-13.02-1.03-19.46-1.03Z"/>
    <path class="cls-2" d="M1123.18,246.57c9.68.05,19.46-.85,29.05.8,4,6.55,6.28,13.97,9.01,21.15,8.06,22.53,16.91,44.77,25.21,67.22,3.31,9.04,7.71,17.79,9.46,27.36-11.08,1.27-22.56,2.01-33.53-.27-2.44-4.37-4.11-9.07-6.52-13.39-12.17-3.18-25-.98-37.43-.87-1.62,5.04-3.26,10.1-4.9,15.19-11.29.19-22.58.27-33.88.24,1.64-6.87,3.47-13.68,6.07-20.23,12.72-32.31,24.41-65.02,37.46-97.2ZM1137.49,289.85c-3.23,9.78-6.18,19.64-8.99,29.58,6.15,0,12.33.03,18.5.05-2.68-10.05-5.81-19.93-9.52-29.64Z"/>
    <path class="cls-2" d="M1420.44,247.52c28.6-1.99,57.28-.24,85.91-.93.19,10.23.27,20.46.27,30.7-17.18.85-34.38.27-51.56.61-.08,4.08-.13,8.19-.16,12.33,13.2.61,26.43.74,39.66.64.32,9.49.27,19.01-.19,28.52-13.15-.11-26.3-.11-39.42.5-.05,4.16-.08,8.38-.11,12.62,17.5,1.03,35.04.61,52.57.77.64,10.21.61,20.46-.16,30.7-27.41-.32-54.87.4-82.25-.24-5.14.32-4.11-6.34-4.48-9.6.03-35.52.32-71.09-.08-106.61Z"/>
    <path class="cls-2" d="M1641.94,246.57c20.46.98,41.3-2.01,61.5,2.23,23.91,5.67,43.63,27.28,44.56,52.25,2.33,22.9-11.05,45.89-31.57,55.98-15.37,8.54-33.43,6.76-50.34,7.02-8.03-.37-16.51,1.22-24.23-1.51-1.54-16.86-.34-33.82-.69-50.74.42-21.74-.8-43.53.77-65.24ZM1676,279.62c-.53,17.18-.48,34.33-.13,51.5,8.83-.5,18.58.72,26.45-4.21,15.56-9.33,14.55-36.13-1.7-44.24-7.63-3.58-16.46-2.49-24.63-3.05Z"/>
    <path class="cls-2" d="M1808.46,247.49c9.89-1.54,19.93-.8,29.9-.82,20.17.37,40.37-.8,60.52.72-.64,9.91,2.12,21.52-5.14,29.66-14.08,18.29-27.75,36.9-41.91,55.14,16.7.72,33.43.13,50.15,1.06.45,10.21.37,20.44-.21,30.64-31.52.05-63.04,0-94.55.08-.29-10.44-3.15-22.51,4.08-31.33,13.6-18.21,27.94-35.89,40.9-54.55-14.87-.16-29.77.03-44.64-.66-.05-9.99-.77-20.07.9-29.93Z"/>
    <path class="cls-2" d="M1947.76,256.22c2.01-3.39,2.39-9.89,7.53-9.41,8.56-.77,17.2-.29,25.82-.21,12.75,30.96,23.57,62.66,35.92,93.78,3.13,7.61,5.51,15.51,7.37,23.57-11.27.03-22.53-.03-33.8-.11-1.88-5.25-3.76-10.5-5.62-15.72-12.54-.16-25.05-.11-37.54.24-1.88,5.22-3.74,10.44-5.59,15.67-11.37-.03-22.74-.08-34.09-.34,12.06-36.26,26.91-71.57,40-107.46ZM1966.53,290.01c-3.63,9.6-6.63,19.4-9.09,29.4,6.12-.08,12.25-.16,18.4-.21-3.02-9.75-6.02-19.54-9.3-29.19Z"/>
    <path class="cls-2" d="M2066.31,246.65c10.92.03,21.95-.8,32.82.8,2.25,19.59.05,39.44.85,59.14-.05,16.62,2.41,36.4-10.92,49.04-16.49,15.85-42.73,12.88-60.62,1.06,4.74-9.83,10.26-19.3,16.41-28.34,5.88,1.59,12.25,7.13,18.29,3.47,2.7-2.33,1.75-6.47,2.33-9.57.58-25.18-1.09-50.44.85-75.6Z"/>
    <path class="cls-2" d="M2114.55,246.57c28.12.16,56.28.21,84.43-.03.95,10.26,1.06,20.6.64,30.91-17.04.5-34.12.34-51.16.29-.08,4.32-.13,8.67-.16,13.04,13.2-.29,26.4-.29,39.6.32.03,9.33-.03,18.71-.16,28.07-13.12.19-26.27.27-39.36.48-.05,4.32-.08,8.67-.11,13.04,17.55.13,35.12-.34,52.64.74.11,8.69.69,17.44-.13,26.16.48,5.51-6.41,3.79-9.73,4.48-25.55.03-51.11-.29-76.66-.08-1.54-27.14-.19-54.31-.56-81.49-.27-11.98-.19-23.99.72-35.94Z"/>
    <path class="cls-2" d="M521.4,247.34c11.29-.32,22.72-1.62,33.93.4,13.39,16.3,20.62,36.9,34.75,52.75,1.56-17.52.69-35.15.72-52.7,11.21-1.11,22.51-1.22,33.77-.42.08,38.86.77,77.75-.48,116.58-10.18.03-20.33.03-30.51-.03-13.17-19.7-23.99-40.95-38.14-59.99-2.07,19.67.85,39.52-1.64,59.11-10.34,1.72-21.02,1.48-31.41.24-.98-4.72-1.09-9.52-1.14-14.26.32-33.9.11-67.78.16-101.68Z"/>
    <path class="cls-2" d="M1205.89,247.71c15.56-1.19,31.17-.95,46.76-.9,10.05.03,20.7.93,29.26,6.73,23.59,14.42,23.11,54.26-.42,68.5-12.22,7.66-27.28,6.23-41.03,6.6.32,11.8.19,23.65-.74,35.44-10.97-.16-21.95-.16-32.9.05-1.91-38.78-.13-77.62-.93-116.42ZM1240.64,278.24c.08,6.41.16,12.8.29,19.24,7.18-1.06,16.89,1.83,21.92-4.93,4.11-4.45,1.4-12.01-4.11-13.65-5.91-1.59-12.09-.66-18.1-.66Z"/>
    <path class="cls-2" d="M1311.25,247.31c16.7-.58,33.4-.58,50.13-.45,9.81.08,20.15,1.75,28.12,7.98,14.31,10.5,18.61,30.96,12.72,47.24-2.81,6.92-8.19,12.27-13.04,17.81,6.71,14.74,15.64,28.5,20.57,44.03-12.41.08-24.81-.03-37.19-.16-5.83-11.72-11.42-23.54-16.89-35.44-3.37-.16-6.71-.29-10.02-.4.19,12.01-.03,24.04-.69,36.05-11.19-.03-22.35-.05-33.51-.08-.45-38.86-.24-77.72-.21-116.58ZM1345.61,276.79c.03,7.29.08,14.58.16,21.92,6.34-.42,12.86-.05,19.03-1.8,6.04-3.71,7.08-14.21.98-18.18-6.47-2.15-13.47-1.59-20.17-1.94Z"/>
    <path class="cls-2" d="M1520.93,247.49c11.21-.45,22.61-1.8,33.74.19,14.02,17.34,22.98,38.22,35.87,56.41.95-18.82-1.22-37.75,1.19-56.46,10.66-1.56,21.44-.74,32.15-.4.48,38.89,1.06,77.85-.29,116.74-10.23-.03-20.44-.05-30.64-.16-12.8-20.04-24.63-40.69-37.48-60.7-2.62,20.15-.45,40.48-1.62,60.7-10.82.16-21.63.16-32.45.03-1.01-38.75-.19-77.56-.48-116.34Z"/>
    <path class="cls-2" d="M1759.87,247.81c11.42-1.14,22.9-1.22,34.38-.61.16,38.94,1.11,77.91-.45,116.79-11.05-.11-22.19.77-33.13-.9-1.59-38.36.05-76.87-.8-115.28Z"/>
    <path class="cls-1" d="M1730.69,32.22c9.38-1.4,18.95-.5,28.42-.05-6.02,7.63-12.83,14.61-19.72,21.44-7.87.08-15.72.08-23.57-.13,4.11-7.55,7.9-15.88,14.87-21.26Z"/>
    <path class="cls-1" d="M1031.12,59.39c22.56-4.35,47.13,4.82,60.73,23.43,17.15,22.45,15.37,56.91-3.82,77.62-16.14,18.03-43.45,25.02-66.16,16.38-24.2-8.24-41.19-32.98-40.53-58.48-.11-28.23,21.9-54.42,49.78-58.95ZM1033.85,93.3c-21.74,7.63-22.64,42.6-1.51,51.53,17.44,8.43,38.14-8.03,36.24-26.64.16-17.2-18.21-31.09-34.73-24.89Z"/>
    <path class="cls-1" d="M2055.46,86.27c17.95-30.01,63.3-37.06,89.86-14.55-3.61,9.62-10.84,17.68-17.97,24.89-10.82-2.15-22.96-8.01-33.29-1.17-15.98,9.36-17.55,34.33-2.92,45.7,10.23,9.54,25.45,5.3,36.53-.4,6.55,8.56,13.09,17.18,18.42,26.59-20.49,14.98-49.83,18.18-71.49,3.84-28.47-16.54-37.38-57.71-19.14-84.9Z"/>
    <path class="cls-1" d="M483.62,64.09c20.25-9.49,45.65-6.87,63.46,6.65-.98,10.52-10.21,18-16.62,25.71-10.74-1.43-22.4-7.82-32.79-1.54-17.89,9.44-18.13,38.91-.45,48.67,10.47,6.31,23.11,2.44,33-3.1,5.57,9.01,15.64,16.38,16.83,27.41-11,8.62-25.18,13.09-39.15,12.49-23.14-.16-45.12-15.37-54.18-36.53-13.6-29.08.45-66.96,29.9-79.76Z"/>
    <path class="cls-1" d="M560.76,61.49c28.15,0,56.3.03,84.45-.08.34,9.99,4.53,22.32-1.67,30.93-16.12.98-32.31.45-48.46-.13,1.17.74,3.45,2.23,4.61,2.97-2.04,3-4.14,6.02-6.26,9.04,13.39.69,26.8.48,40.19.27.64,9.75.66,19.56.48,29.34-13.52,1.46-27.14.74-40.69,1.46,1.46,3.9-.08,9.83,4.11,12.38,16.54,1.09,33.13-.13,49.7.58.13,10.02.11,20.07-.21,30.11-29.03.05-58.05.53-87.08-.27.45-38.86-1.11-77.8.82-116.61Z"/>
    <path class="cls-1" d="M729.17,61.65c10.82-.21,21.6-.19,32.42-.19.98,7.42,1.54,14.92,1.46,22.45-.21,31.36.05,62.74-.16,94.13-10.76.58-21.55.61-32.34,0-12.22-19.83-23.11-40.61-37.51-58.98-1.14,19.72-.13,39.47-.69,59.22-10.89.24-21.79.27-32.68.03-.16-38.91-.61-77.85.27-116.77,11.11.11,22.32-.9,33.4.61,13.23,17.73,22.56,38.09,35.36,56.17.48-18.9-.08-37.8.48-56.67Z"/>
    <path class="cls-1" d="M774.07,62.02c30.83-1.22,61.79-.32,92.67-.4.37,10.5.37,21.02.16,31.54-9.73.32-19.48.34-29.21.29-.5,27.04-.21,54.08-.16,81.11-.77,1.25-2.31,3.79-3.1,5.06-10.44.21-20.89-.27-31.28-1.11-1.22-28.39,1.54-56.94-1.56-85.2-9.7.24-19.43.21-29.13-.4.32-10.29-1.19-20.89,1.62-30.91Z"/>
    <path class="cls-1" d="M877.58,61.57c18.18-.05,36.37-.32,54.58-.03,14.34.16,28.31,8.72,34.67,21.63,4.53,8.72,4.67,19.03,3.18,28.58-1.67,9.07-8.88,15.35-13.76,22.74,4.88,15.32,14.71,28.55,20.44,43.61-13.15.56-26.32.8-39.44-.32-4.35-11.96-10.02-23.33-15.51-34.75-2.49-.03-7.5-.05-9.99-.08-.19,12.22,1.27,24.73-1.86,36.71-10.58-.74-21.74,1.67-31.94-1.8-1.4-38.7-.5-77.54-.37-116.29ZM911.7,92.37c.05,7.21.13,14.45.32,21.68,7.02-.56,14.02-1.33,20.99-2.17,2.94-6.26,2.92-12.86.13-19.14-7.16-.24-14.29-.37-21.44-.37Z"/>
    <path class="cls-1" d="M1148.26,61.62c30.96-.32,61.92-.11,92.88-.11.42,10.6.42,21.23.16,31.86-9.38.16-18.74.11-28.1-.03-2.84,28.23-.13,56.73-1.54,85.09-11.37.11-22.77.13-34.14-.29-.27-28.2.29-56.44-.29-84.64-9.73.03-19.43-.03-29.13-.37-.05-10.52-.03-21.02.16-31.52Z"/>
    <path class="cls-1" d="M1253.04,61.41c28.12.11,56.28.03,84.4.08,1.35,10.39,1.43,20.94-.37,31.31-16.86-.08-33.72-.19-50.6.11l-.42,11.45c13.23,2.01,26.61,1.22,39.92,1.43.16,9.3.19,18.61.11,27.94-13.23,1.51-26.56.9-39.81,1.46-.03,2.89-.03,8.69-.05,11.61,17.57,2.39,35.31.74,52.96,1.51.08,9.97.08,19.96-.11,29.95-28.95.45-57.92.27-86.87.11-.82-26.14-.19-52.27-.37-78.41.03-12.86-.66-25.79,1.22-38.54Z"/>
    <path class="cls-1" d="M1351.65,61.54c18.24.03,36.47-.37,54.69.03,18.4.16,35.57,14.63,38.09,32.98,3.05,15.14-3.71,30.14-15.53,39.58,6.76,14.82,15.98,28.52,20.7,44.22-12.3-.05-24.65,1.01-36.87-.53-6.89-10.87-11.32-23.09-16.81-34.67-3.74.03-7.5.08-11.21.21.21,11.66.21,23.35-.03,35.07-10.97.11-21.98.11-32.95,0-.64-38.94-.42-77.91-.08-116.87ZM1385.87,92.18c.05,7.13-.13,14.31.93,21.42,6.97.32,13.89-.87,20.76-2.12,1.17-6.02,4.16-12.91-1.09-17.89-6.73-1.7-13.73-1.22-20.6-1.4Z"/>
    <path class="cls-1" d="M1498.74,61.54c10.02-.37,20.07-.34,30.09-.03,14.55,38.83,30.22,77.32,43.39,116.66-11.4.42-22.77.37-34.14.27-2.07-5.3-4.11-10.6-6.15-15.85-12.19.03-24.39.05-36.55-.03-2.04,5.28-4.06,10.58-6.07,15.9-11.16.05-22.32.05-33.48-.16,2.73-12.43,7.53-24.18,12.19-35.94,10.23-26.96,20.46-53.89,30.72-80.82ZM1504.66,133.59c6.07.05,12.14.05,18.21.08-2.84-9.81-5.86-19.54-9.07-29.19-3.31,9.62-6.28,19.35-9.15,29.11Z"/>
    <path class="cls-1" d="M1582.62,61.51c18.21.13,36.42-.4,54.63.13,19.01.53,36.74,16.04,37.99,35.34,1.72,14.9-4.16,31.15-17.12,39.39-12.06,8.19-27.41,6.84-41.27,6.92-.05,11.61-.03,23.22-.11,34.86-11.4.42-22.8.42-34.2.21-.4-38.94-.56-77.91.08-116.85ZM1616.86,92.64c-.03,6.47-.05,12.96,0,19.48,5.94-.32,12.06.21,17.92-1.25,4.08-2.2,6.65-6.84,6.1-11.48-4.35-9.36-15.88-5.96-24.02-6.76Z"/>
    <path class="cls-1" d="M1686.18,61.59c28.39-.16,56.75-.24,85.14,0,.4,10.36.4,20.78-.16,31.17-16.91-.03-33.82-.11-50.74.03-.03,4.06-.05,8.16-.08,12.27,13.2.87,26.45.53,39.71.85.08,9.15.11,18.32.13,27.49-13.2,1.88-26.53,1.43-39.79,1.48-.03,4.08-.03,8.22-.03,12.35,17.6,1.7,35.28.13,52.91,1.27,0,9.86-.03,19.72-.05,29.58-29.08.69-58.16.56-87.24.08-.08-38.86-.37-77.75.19-116.58Z"/>
    <path class="cls-1" d="M1785.3,61.36c11.11.08,22.24.11,33.37.29.61,22.43-.03,44.88.29,67.33-.24,7.55,3.29,15.61,10.31,19.11,5.75,1.86,12.86,1.25,17.23-3.34,5.3-5.57,5.57-13.84,5.91-21.05.16-20.73-.37-41.48.29-62.21,11-.03,22.03-.03,33.06-.08,2.44,17.04.82,34.33,1.25,51.5-.08,15.14,1.56,31.52-6.36,45.2-8.75,15.8-27.44,23.96-45.06,23.01-18.61,1.11-38.68-8.27-46.52-25.79-6.12-12.35-4.59-26.43-4.69-39.71.34-18.1-.85-36.24.93-54.26Z"/>
    <path class="cls-1" d="M1895.65,61.65c30.99-.34,62-.16,93.02-.11.32,10.63.34,21.29-.08,31.92-10.21.19-20.44.19-30.56-1.01,9.09,3.58,19.06,2.89,28.66,3.39-7.61.34-15.85-1.56-22.9,1.94-2.28,3.74-1.86,8.32-1.99,12.54.16,21.98.08,43.95-.03,65.95-.56-22.9.11-45.81-.21-68.71-.19-3.34-.42-7.48-2.89-9.91,1.46,26.83.64,53.73.61,80.58-11.45.37-22.88.34-34.3-.08-.27-28.2.13-56.44-.19-84.64-9.75,0-19.51-.03-29.24-.34-.21-10.5-.19-21.02.11-31.52Z"/>
    <path class="cls-1" d="M1999.85,62.15c11.11-1.46,22.37-.53,33.59-.53.72,38.89.32,77.77.21,116.66-11.48.32-22.96.34-34.38-.24.42-38.62-.9-77.32.58-115.89Z"/>
    <path class="cls-1" d="M2191.63,60.67c18.56-5.22,39.31-1.27,54.61,10.5,22.85,16.99,29.95,51.08,16.62,76.08-10.26,20.6-33,34.14-56.01,33.16-24.86-.03-48.22-17.47-56.28-40.8-12.06-31.86,7.77-70.88,41.06-78.94ZM2199.93,93.27c-19.3,6.73-23.86,35.04-7.74,47.58,14.5,14.1,40.45,2.07,42.09-17.2,3.74-18.74-15.77-37.46-34.35-30.38Z"/>
  </g>
</svg>